<mxfile host="app.diagrams.net" agent="Mozilla/5.0 (Windows NT 10.0; Win64; x64) AppleWebKit/537.36 (KHTML, like Gecko) Chrome/141.0.0.0 Safari/537.36" version="28.2.8">
  <diagram name="Page-1" id="Vd09RxBzxM2-TLh0bUjH">
    <mxGraphModel dx="1426" dy="21" grid="1" gridSize="10" guides="1" tooltips="1" connect="1" arrows="1" fold="1" page="1" pageScale="1" pageWidth="830" pageHeight="768" math="0" shadow="0">
      <root>
        <mxCell id="0" />
        <mxCell id="1" parent="0" />
        <mxCell id="-hKqGcVPF6-ta_k8zyYR-1" value="WebGPU APIs" style="rounded=1;arcSize=10;whiteSpace=wrap;html=1;align=center;fillColor=light-dark(#005A9C,#005A9C);fontColor=#000000;strokeColor=default;gradientColor=none;gradientDirection=north;fillStyle=zigzag;sketch=1;curveFitting=1;jiggle=2;fontFamily=Comic Sans MS;fontSize=32;fontStyle=1;labelBackgroundColor=none;labelBorderColor=none;textShadow=1;" parent="1" vertex="1">
          <mxGeometry x="10" y="1480" width="810" height="50" as="geometry" />
        </mxCell>
        <mxCell id="QNinl-FxONfIF-WMUGOS-1" value="Your Application" style="rounded=1;arcSize=10;whiteSpace=wrap;html=1;align=center;fillColor=#60a917;strokeColor=light-dark(#2D7600,#FFFFFF);gradientDirection=north;fillStyle=zigzag;sketch=1;curveFitting=1;jiggle=2;fontFamily=Comic Sans MS;fontSize=32;fontStyle=1;labelBackgroundColor=none;labelBorderColor=none;textShadow=1;fontColor=light-dark(#FFFFFF,#FFFFFF);" parent="1" vertex="1">
          <mxGeometry x="10" y="780" width="810" height="50" as="geometry" />
        </mxCell>
        <mxCell id="7VYEh889NyYLhTuRO7js-1" value="UWAL" style="rounded=1;hachureGap=4;fontFamily=Comic Sans MS;dashed=1;dashPattern=12 12;fillStyle=hachure;fillColor=none;glass=0;shadow=0;fontSize=256;fontColor=light-dark(#FFFFFF,#0093FF);textShadow=0;fontStyle=1;arcSize=5;textOpacity=10;html=1;whiteSpace=wrap;labelBorderColor=none;labelBackgroundColor=none;sketch=1;curveFitting=1;jiggle=2;" parent="1" vertex="1">
          <mxGeometry x="10" y="840" width="810" height="630" as="geometry" />
        </mxCell>
        <mxCell id="7VYEh889NyYLhTuRO7js-3" value="Render Pipeline" style="rounded=1;arcSize=10;whiteSpace=wrap;html=1;align=center;gradientDirection=north;fillStyle=zigzag;sketch=1;curveFitting=1;jiggle=2;fontFamily=Comic Sans MS;fontSize=16;fontStyle=1;labelBackgroundColor=none;labelBorderColor=none;textShadow=0;fillColor=#60a917;strokeColor=#2D7600;fontColor=light-dark(#FFFFFF,#FFFFFF);" parent="1" vertex="1">
          <mxGeometry x="210" y="1270.63" width="510" height="50" as="geometry" />
        </mxCell>
        <mxCell id="7VYEh889NyYLhTuRO7js-4" value="Compute Pipeline" style="rounded=1;arcSize=10;whiteSpace=wrap;html=1;align=center;fillColor=#1ba1e2;strokeColor=#006EAF;gradientDirection=north;fillStyle=zigzag;sketch=1;curveFitting=1;jiggle=2;fontFamily=Comic Sans MS;fontSize=16;fontStyle=1;labelBackgroundColor=none;labelBorderColor=none;textShadow=0;fontColor=light-dark(#FFFFFF,#FFFFFF);" parent="1" vertex="1">
          <mxGeometry x="40" y="1270.63" width="160" height="50" as="geometry" />
        </mxCell>
        <mxCell id="7VYEh889NyYLhTuRO7js-6" value="Device" style="rounded=1;arcSize=10;whiteSpace=wrap;html=1;align=center;gradientDirection=north;fillStyle=zigzag;sketch=1;curveFitting=1;jiggle=2;fontFamily=Comic Sans MS;fontSize=16;fontStyle=1;labelBackgroundColor=none;labelBorderColor=none;textShadow=0;fillColor=#76608a;strokeColor=#432D57;fontColor=light-dark(#FFFFFF,#FFFFFF);" parent="1" vertex="1">
          <mxGeometry x="20" y="1410" width="790" height="50" as="geometry" />
        </mxCell>
        <mxCell id="7VYEh889NyYLhTuRO7js-25" style="edgeStyle=orthogonalEdgeStyle;rounded=0;sketch=1;hachureGap=4;jiggle=2;curveFitting=1;orthogonalLoop=1;jettySize=auto;html=1;fontFamily=Architects Daughter;fontSource=https%3A%2F%2Ffonts.googleapis.com%2Fcss%3Ffamily%3DArchitects%2BDaughter;" parent="1" source="7VYEh889NyYLhTuRO7js-8" target="7VYEh889NyYLhTuRO7js-10" edge="1">
          <mxGeometry relative="1" as="geometry">
            <Array as="points">
              <mxPoint x="120" y="1190.63" />
              <mxPoint x="120" y="1190.63" />
            </Array>
          </mxGeometry>
        </mxCell>
        <mxCell id="7VYEh889NyYLhTuRO7js-27" style="edgeStyle=orthogonalEdgeStyle;rounded=0;sketch=1;hachureGap=4;jiggle=2;curveFitting=1;orthogonalLoop=1;jettySize=auto;html=1;fontFamily=Architects Daughter;fontSource=https%3A%2F%2Ffonts.googleapis.com%2Fcss%3Ffamily%3DArchitects%2BDaughter;" parent="1" source="7VYEh889NyYLhTuRO7js-8" target="7VYEh889NyYLhTuRO7js-11" edge="1">
          <mxGeometry relative="1" as="geometry">
            <Array as="points">
              <mxPoint x="480" y="1190" />
              <mxPoint x="480" y="1190" />
            </Array>
          </mxGeometry>
        </mxCell>
        <mxCell id="7VYEh889NyYLhTuRO7js-8" value="Base Stage" style="rounded=1;arcSize=10;whiteSpace=wrap;html=1;align=center;fillColor=#e3c800;strokeColor=#B09500;gradientDirection=north;fillStyle=zigzag;sketch=1;curveFitting=1;jiggle=2;fontFamily=Comic Sans MS;fontSize=16;fontStyle=1;labelBackgroundColor=none;labelBorderColor=none;textShadow=0;fontColor=#000000;" parent="1" vertex="1">
          <mxGeometry x="40" y="1200.63" width="680" height="50" as="geometry" />
        </mxCell>
        <mxCell id="7VYEh889NyYLhTuRO7js-32" style="edgeStyle=orthogonalEdgeStyle;rounded=0;sketch=1;hachureGap=4;jiggle=2;curveFitting=1;orthogonalLoop=1;jettySize=auto;html=1;fontFamily=Architects Daughter;fontSource=https%3A%2F%2Ffonts.googleapis.com%2Fcss%3Ffamily%3DArchitects%2BDaughter;" parent="1" source="7VYEh889NyYLhTuRO7js-9" target="7VYEh889NyYLhTuRO7js-3" edge="1">
          <mxGeometry relative="1" as="geometry">
            <Array as="points">
              <mxPoint x="480" y="1330" />
              <mxPoint x="480" y="1330" />
            </Array>
          </mxGeometry>
        </mxCell>
        <mxCell id="7VYEh889NyYLhTuRO7js-34" style="edgeStyle=orthogonalEdgeStyle;rounded=0;sketch=1;hachureGap=4;jiggle=2;curveFitting=1;orthogonalLoop=1;jettySize=auto;html=1;fontFamily=Architects Daughter;fontSource=https%3A%2F%2Ffonts.googleapis.com%2Fcss%3Ffamily%3DArchitects%2BDaughter;" parent="1" source="7VYEh889NyYLhTuRO7js-9" target="7VYEh889NyYLhTuRO7js-4" edge="1">
          <mxGeometry relative="1" as="geometry">
            <Array as="points">
              <mxPoint x="115" y="1330.63" />
              <mxPoint x="115" y="1330.63" />
            </Array>
          </mxGeometry>
        </mxCell>
        <mxCell id="7VYEh889NyYLhTuRO7js-9" value="Base Pipeline" style="rounded=1;arcSize=10;whiteSpace=wrap;html=1;align=center;fillColor=#e3c800;strokeColor=#B09500;gradientDirection=north;fillStyle=zigzag;sketch=1;curveFitting=1;jiggle=2;fontFamily=Comic Sans MS;fontSize=16;fontStyle=1;labelBackgroundColor=none;labelBorderColor=none;textShadow=0;fontColor=#000000;" parent="1" vertex="1">
          <mxGeometry x="20" y="1340.63" width="700" height="50" as="geometry" />
        </mxCell>
        <mxCell id="7VYEh889NyYLhTuRO7js-10" value="Computation" style="rounded=1;arcSize=10;whiteSpace=wrap;html=1;align=center;fillColor=#0050ef;strokeColor=#001DBC;gradientDirection=north;fillStyle=zigzag;sketch=1;curveFitting=1;jiggle=2;fontFamily=Comic Sans MS;fontSize=16;fontStyle=1;labelBackgroundColor=none;labelBorderColor=none;textShadow=0;fontColor=light-dark(#FFFFFF,#FFFFFF);" parent="1" vertex="1">
          <mxGeometry x="40" y="1130.63" width="160" height="50" as="geometry" />
        </mxCell>
        <mxCell id="7VYEh889NyYLhTuRO7js-11" value="Renderer" style="rounded=1;arcSize=10;whiteSpace=wrap;html=1;align=center;gradientDirection=north;fillStyle=zigzag;sketch=1;curveFitting=1;jiggle=2;fontFamily=Comic Sans MS;fontSize=16;fontStyle=1;labelBackgroundColor=none;labelBorderColor=none;textShadow=0;fillColor=#008a00;strokeColor=#005700;fontColor=light-dark(#FFFFFF,#FFFFFF);" parent="1" vertex="1">
          <mxGeometry x="210" y="1130.63" width="510" height="50" as="geometry" />
        </mxCell>
        <mxCell id="7VYEh889NyYLhTuRO7js-18" value="Texture" style="rounded=1;arcSize=10;whiteSpace=wrap;html=1;align=center;gradientDirection=north;fillStyle=zigzag;sketch=1;curveFitting=1;jiggle=2;fontFamily=Comic Sans MS;fontSize=16;fontStyle=1;labelBackgroundColor=none;labelBorderColor=none;textShadow=0;fillColor=#d80073;strokeColor=#A50040;fontColor=light-dark(#FFFFFF,#FFFFFF);" parent="1" vertex="1">
          <mxGeometry x="680" y="1060.63" width="100" height="50" as="geometry" />
        </mxCell>
        <mxCell id="7VYEh889NyYLhTuRO7js-28" style="edgeStyle=orthogonalEdgeStyle;rounded=0;sketch=1;hachureGap=4;jiggle=2;curveFitting=1;orthogonalLoop=1;jettySize=auto;html=1;entryX=1;entryY=0.4;entryDx=0;entryDy=0;entryPerimeter=0;fontFamily=Architects Daughter;fontSource=https%3A%2F%2Ffonts.googleapis.com%2Fcss%3Ffamily%3DArchitects%2BDaughter;" parent="1" source="7VYEh889NyYLhTuRO7js-3" target="7VYEh889NyYLhTuRO7js-11" edge="1">
          <mxGeometry relative="1" as="geometry">
            <Array as="points">
              <mxPoint x="740" y="1296" />
              <mxPoint x="740" y="1151" />
            </Array>
          </mxGeometry>
        </mxCell>
        <mxCell id="7VYEh889NyYLhTuRO7js-31" style="edgeStyle=orthogonalEdgeStyle;rounded=0;sketch=1;hachureGap=4;jiggle=2;curveFitting=1;orthogonalLoop=1;jettySize=auto;html=1;entryX=-0.005;entryY=0.431;entryDx=0;entryDy=0;entryPerimeter=0;fontFamily=Architects Daughter;fontSource=https%3A%2F%2Ffonts.googleapis.com%2Fcss%3Ffamily%3DArchitects%2BDaughter;" parent="1" source="7VYEh889NyYLhTuRO7js-4" target="7VYEh889NyYLhTuRO7js-10" edge="1">
          <mxGeometry relative="1" as="geometry">
            <Array as="points">
              <mxPoint x="20" y="1295.63" />
              <mxPoint x="20" y="1152.63" />
            </Array>
          </mxGeometry>
        </mxCell>
        <mxCell id="7VYEh889NyYLhTuRO7js-37" value="MathUtils" style="rounded=1;arcSize=10;whiteSpace=wrap;html=1;align=center;fillColor=#76608a;strokeColor=#432D57;gradientDirection=north;fillStyle=zigzag;sketch=1;curveFitting=1;jiggle=2;fontFamily=Comic Sans MS;fontSize=16;fontStyle=1;labelBackgroundColor=none;labelBorderColor=none;textShadow=0;fontColor=light-dark(#FFFFFF,#FFFFFF);" parent="1" vertex="1">
          <mxGeometry x="100" y="920" width="100" height="50" as="geometry" />
        </mxCell>
        <mxCell id="7VYEh889NyYLhTuRO7js-38" value="Constants" style="rounded=1;arcSize=10;whiteSpace=wrap;html=1;align=center;gradientDirection=north;fillStyle=zigzag;sketch=1;curveFitting=1;jiggle=2;fontFamily=Comic Sans MS;fontSize=16;fontStyle=1;labelBackgroundColor=none;labelBorderColor=none;textShadow=0;fillColor=#647687;strokeColor=#314354;fontColor=light-dark(#FFFFFF,#FFFFFF);" parent="1" vertex="1">
          <mxGeometry x="60" y="1060.63" width="140" height="50" as="geometry" />
        </mxCell>
        <mxCell id="7VYEh889NyYLhTuRO7js-44" value="GPUTiming" style="rounded=1;arcSize=10;whiteSpace=wrap;html=1;align=center;fillColor=#76608a;strokeColor=#432D57;gradientDirection=north;fillStyle=zigzag;sketch=1;curveFitting=1;jiggle=2;fontFamily=Comic Sans MS;fontSize=16;fontStyle=1;labelBackgroundColor=none;labelBorderColor=none;textShadow=0;fontColor=light-dark(#FFFFFF,#FFFFFF);" parent="1" vertex="1">
          <mxGeometry x="80" y="990.63" width="120" height="50" as="geometry" />
        </mxCell>
        <mxCell id="7VYEh889NyYLhTuRO7js-45" value="Color" style="rounded=1;arcSize=10;whiteSpace=wrap;html=1;align=center;fillColor=#76608a;strokeColor=#432D57;gradientDirection=north;fillStyle=zigzag;sketch=1;curveFitting=1;jiggle=2;fontFamily=Comic Sans MS;fontSize=16;fontStyle=1;labelBackgroundColor=none;labelBorderColor=none;textShadow=0;fontColor=light-dark(#FFFFFF,#FFFFFF);" parent="1" vertex="1">
          <mxGeometry x="120" y="850" width="80" height="50" as="geometry" />
        </mxCell>
        <mxCell id="7VYEh889NyYLhTuRO7js-47" style="edgeStyle=orthogonalEdgeStyle;rounded=0;sketch=1;hachureGap=4;jiggle=2;curveFitting=1;orthogonalLoop=1;jettySize=auto;html=1;fontFamily=Architects Daughter;fontSource=https%3A%2F%2Ffonts.googleapis.com%2Fcss%3Ffamily%3DArchitects%2BDaughter;" parent="1" source="7VYEh889NyYLhTuRO7js-10" edge="1">
          <mxGeometry relative="1" as="geometry">
            <mxPoint x="50" y="831.63" as="targetPoint" />
            <Array as="points">
              <mxPoint x="50" y="831.63" />
            </Array>
          </mxGeometry>
        </mxCell>
        <mxCell id="7VYEh889NyYLhTuRO7js-49" style="edgeStyle=orthogonalEdgeStyle;rounded=0;sketch=1;hachureGap=4;jiggle=2;curveFitting=1;orthogonalLoop=1;jettySize=auto;html=1;fontFamily=Architects Daughter;fontSource=https%3A%2F%2Ffonts.googleapis.com%2Fcss%3Ffamily%3DArchitects%2BDaughter;" parent="1" source="7VYEh889NyYLhTuRO7js-38" edge="1">
          <mxGeometry relative="1" as="geometry">
            <mxPoint x="70" y="830.63" as="targetPoint" />
            <Array as="points">
              <mxPoint x="70" y="830.63" />
            </Array>
          </mxGeometry>
        </mxCell>
        <mxCell id="7VYEh889NyYLhTuRO7js-54" style="edgeStyle=orthogonalEdgeStyle;rounded=0;sketch=1;hachureGap=4;jiggle=2;curveFitting=1;orthogonalLoop=1;jettySize=auto;html=1;fontFamily=Architects Daughter;fontSource=https%3A%2F%2Ffonts.googleapis.com%2Fcss%3Ffamily%3DArchitects%2BDaughter;" parent="1" source="7VYEh889NyYLhTuRO7js-44" edge="1">
          <mxGeometry relative="1" as="geometry">
            <mxPoint x="90" y="830.63" as="targetPoint" />
            <Array as="points">
              <mxPoint x="90" y="830.63" />
            </Array>
          </mxGeometry>
        </mxCell>
        <mxCell id="7VYEh889NyYLhTuRO7js-57" style="edgeStyle=orthogonalEdgeStyle;rounded=0;sketch=1;hachureGap=4;jiggle=2;curveFitting=1;orthogonalLoop=1;jettySize=auto;html=1;fontFamily=Architects Daughter;fontSource=https%3A%2F%2Ffonts.googleapis.com%2Fcss%3Ffamily%3DArchitects%2BDaughter;entryX=0.124;entryY=-0.001;entryDx=0;entryDy=0;entryPerimeter=0;" parent="1" source="7VYEh889NyYLhTuRO7js-37" edge="1">
          <mxGeometry relative="1" as="geometry">
            <mxPoint x="110" y="940.63" as="sourcePoint" />
            <mxPoint x="110.44000000000005" y="830" as="targetPoint" />
            <Array as="points">
              <mxPoint x="110" y="840.63" />
              <mxPoint x="110" y="840.63" />
            </Array>
          </mxGeometry>
        </mxCell>
        <mxCell id="7VYEh889NyYLhTuRO7js-58" style="edgeStyle=orthogonalEdgeStyle;rounded=0;sketch=1;hachureGap=4;jiggle=2;curveFitting=1;orthogonalLoop=1;jettySize=auto;html=1;fontFamily=Architects Daughter;fontSource=https%3A%2F%2Ffonts.googleapis.com%2Fcss%3Ffamily%3DArchitects%2BDaughter;" parent="1" source="7VYEh889NyYLhTuRO7js-45" edge="1">
          <mxGeometry relative="1" as="geometry">
            <mxPoint x="160" y="830" as="targetPoint" />
          </mxGeometry>
        </mxCell>
        <mxCell id="J_IsrCbrUyyv8cD7LksS-71" style="edgeStyle=orthogonalEdgeStyle;rounded=0;sketch=1;hachureGap=4;jiggle=2;curveFitting=1;orthogonalLoop=1;jettySize=auto;html=1;entryX=0.5;entryY=1;entryDx=0;entryDy=0;fontFamily=Architects Daughter;fontSource=https%3A%2F%2Ffonts.googleapis.com%2Fcss%3Ffamily%3DArchitects%2BDaughter;" parent="1" source="J_IsrCbrUyyv8cD7LksS-1" target="J_IsrCbrUyyv8cD7LksS-3" edge="1">
          <mxGeometry relative="1" as="geometry">
            <Array as="points">
              <mxPoint x="655" y="1090" />
            </Array>
          </mxGeometry>
        </mxCell>
        <mxCell id="J_IsrCbrUyyv8cD7LksS-1" value="Shaders" style="rounded=1;arcSize=10;whiteSpace=wrap;html=1;align=center;gradientDirection=north;fillStyle=zigzag;sketch=1;curveFitting=1;jiggle=2;fontFamily=Comic Sans MS;fontSize=16;fontStyle=1;labelBackgroundColor=none;labelBorderColor=none;textShadow=0;fillColor=#f0a30a;fontColor=light-dark(#000000,#FFFFFF);strokeColor=#BD7000;" parent="1" vertex="1">
          <mxGeometry x="500" y="1060.63" width="100" height="50" as="geometry" />
        </mxCell>
        <mxCell id="J_IsrCbrUyyv8cD7LksS-3" value="MSDF Text" style="rounded=1;arcSize=10;whiteSpace=wrap;html=1;align=center;fillColor=#d80073;strokeColor=#A50040;gradientDirection=north;fillStyle=zigzag;sketch=1;curveFitting=1;jiggle=2;fontFamily=Comic Sans MS;fontSize=16;fontStyle=1;labelBackgroundColor=none;labelBorderColor=none;textShadow=0;fontColor=light-dark(#FFFFFF,#FFFFFF);" parent="1" vertex="1">
          <mxGeometry x="600" y="920.0000000000001" width="110" height="50" as="geometry" />
        </mxCell>
        <mxCell id="J_IsrCbrUyyv8cD7LksS-5" value="Materials" style="rounded=1;arcSize=10;whiteSpace=wrap;html=1;align=center;fillColor=#a0522d;strokeColor=#6D1F00;gradientDirection=north;fillStyle=zigzag;sketch=1;curveFitting=1;jiggle=2;fontFamily=Comic Sans MS;fontSize=16;fontStyle=1;labelBackgroundColor=none;labelBorderColor=none;textShadow=0;fontColor=light-dark(#FFFFFF,#FFFFFF);" parent="1" vertex="1">
          <mxGeometry x="480" y="990.63" width="90" height="50" as="geometry" />
        </mxCell>
        <mxCell id="J_IsrCbrUyyv8cD7LksS-43" style="edgeStyle=orthogonalEdgeStyle;rounded=0;sketch=1;hachureGap=4;jiggle=2;curveFitting=1;orthogonalLoop=1;jettySize=auto;html=1;fontFamily=Architects Daughter;fontSource=https%3A%2F%2Ffonts.googleapis.com%2Fcss%3Ffamily%3DArchitects%2BDaughter;" parent="1" source="J_IsrCbrUyyv8cD7LksS-6" edge="1">
          <mxGeometry relative="1" as="geometry">
            <mxPoint x="210" y="830" as="targetPoint" />
            <Array as="points">
              <mxPoint x="210" y="1016" />
              <mxPoint x="210" y="840" />
              <mxPoint x="209" y="840" />
              <mxPoint x="209" y="850" />
              <mxPoint x="210" y="850" />
            </Array>
          </mxGeometry>
        </mxCell>
        <mxCell id="J_IsrCbrUyyv8cD7LksS-6" value="Geometries" style="rounded=1;arcSize=10;whiteSpace=wrap;html=1;align=center;fillColor=#a0522d;strokeColor=#6D1F00;gradientDirection=north;fillStyle=zigzag;sketch=1;curveFitting=1;jiggle=2;fontFamily=Comic Sans MS;fontSize=16;fontStyle=1;labelBackgroundColor=none;labelBorderColor=none;textShadow=0;fontColor=light-dark(#FFFFFF,#FFFFFF);" parent="1" vertex="1">
          <mxGeometry x="310" y="990.63" width="110" height="50" as="geometry" />
        </mxCell>
        <mxCell id="J_IsrCbrUyyv8cD7LksS-61" style="edgeStyle=orthogonalEdgeStyle;rounded=0;sketch=1;hachureGap=4;jiggle=2;curveFitting=1;orthogonalLoop=1;jettySize=auto;html=1;fontFamily=Architects Daughter;fontSource=https%3A%2F%2Ffonts.googleapis.com%2Fcss%3Ffamily%3DArchitects%2BDaughter;" parent="1" source="J_IsrCbrUyyv8cD7LksS-7" edge="1">
          <mxGeometry relative="1" as="geometry">
            <mxPoint x="520" y="830" as="targetPoint" />
            <Array as="points">
              <mxPoint x="520" y="900" />
              <mxPoint x="520" y="900" />
            </Array>
          </mxGeometry>
        </mxCell>
        <mxCell id="J_IsrCbrUyyv8cD7LksS-7" value="Mesh" style="rounded=1;arcSize=10;whiteSpace=wrap;html=1;align=center;fillColor=#e51400;strokeColor=#B20000;gradientDirection=north;fillStyle=zigzag;sketch=1;curveFitting=1;jiggle=2;fontFamily=Comic Sans MS;fontSize=16;fontStyle=1;labelBackgroundColor=none;labelBorderColor=none;textShadow=0;fontColor=light-dark(#FFFFFF,#FFFFFF);" parent="1" vertex="1">
          <mxGeometry x="450" y="920" width="90" height="50" as="geometry" />
        </mxCell>
        <mxCell id="J_IsrCbrUyyv8cD7LksS-8" value="Shape" style="rounded=1;arcSize=10;whiteSpace=wrap;html=1;align=center;fillColor=#e51400;strokeColor=#B20000;gradientDirection=north;fillStyle=zigzag;sketch=1;curveFitting=1;jiggle=2;fontFamily=Comic Sans MS;fontSize=16;fontStyle=1;labelBackgroundColor=none;labelBorderColor=none;textShadow=0;fontColor=light-dark(#FFFFFF,#FFFFFF);" parent="1" vertex="1">
          <mxGeometry x="370" y="920" width="70" height="50" as="geometry" />
        </mxCell>
        <mxCell id="J_IsrCbrUyyv8cD7LksS-31" style="edgeStyle=orthogonalEdgeStyle;rounded=0;sketch=1;hachureGap=4;jiggle=2;curveFitting=1;orthogonalLoop=1;jettySize=auto;html=1;fontFamily=Architects Daughter;fontSource=https%3A%2F%2Ffonts.googleapis.com%2Fcss%3Ffamily%3DArchitects%2BDaughter;" parent="1" source="J_IsrCbrUyyv8cD7LksS-9" target="J_IsrCbrUyyv8cD7LksS-11" edge="1">
          <mxGeometry relative="1" as="geometry">
            <Array as="points">
              <mxPoint x="300" y="1020" />
              <mxPoint x="300" y="1020" />
            </Array>
          </mxGeometry>
        </mxCell>
        <mxCell id="J_IsrCbrUyyv8cD7LksS-36" style="edgeStyle=orthogonalEdgeStyle;rounded=0;sketch=1;hachureGap=4;jiggle=2;curveFitting=1;orthogonalLoop=1;jettySize=auto;html=1;entryX=0.25;entryY=1;entryDx=0;entryDy=0;fontFamily=Architects Daughter;fontSource=https%3A%2F%2Ffonts.googleapis.com%2Fcss%3Ffamily%3DArchitects%2BDaughter;" parent="1" source="J_IsrCbrUyyv8cD7LksS-9" target="J_IsrCbrUyyv8cD7LksS-7" edge="1">
          <mxGeometry relative="1" as="geometry">
            <Array as="points">
              <mxPoint x="473" y="980" />
              <mxPoint x="473" y="980" />
            </Array>
          </mxGeometry>
        </mxCell>
        <mxCell id="J_IsrCbrUyyv8cD7LksS-9" value="Node" style="rounded=1;arcSize=10;whiteSpace=wrap;html=1;align=center;fillColor=#e3c800;strokeColor=#B09500;gradientDirection=north;fillStyle=zigzag;sketch=1;curveFitting=1;jiggle=2;fontFamily=Comic Sans MS;fontSize=16;fontStyle=1;labelBackgroundColor=none;labelBorderColor=none;textShadow=0;fontColor=#000000;" parent="1" vertex="1">
          <mxGeometry x="210" y="1060.63" width="280" height="50" as="geometry" />
        </mxCell>
        <mxCell id="J_IsrCbrUyyv8cD7LksS-11" value="Camera" style="rounded=1;arcSize=10;whiteSpace=wrap;html=1;align=center;fillColor=#a20025;strokeColor=#6F0000;gradientDirection=north;fillStyle=zigzag;sketch=1;curveFitting=1;jiggle=2;fontFamily=Comic Sans MS;fontSize=16;fontStyle=1;labelBackgroundColor=none;labelBorderColor=none;textShadow=0;fontColor=light-dark(#FFFFFF,#FFFFFF);" parent="1" vertex="1">
          <mxGeometry x="290" y="920" width="70" height="50" as="geometry" />
        </mxCell>
        <mxCell id="J_IsrCbrUyyv8cD7LksS-15" style="edgeStyle=orthogonalEdgeStyle;rounded=0;sketch=1;hachureGap=4;jiggle=2;curveFitting=1;orthogonalLoop=1;jettySize=auto;html=1;entryX=0.71;entryY=0.991;entryDx=0;entryDy=0;entryPerimeter=0;fontFamily=Architects Daughter;fontSource=https%3A%2F%2Ffonts.googleapis.com%2Fcss%3Ffamily%3DArchitects%2BDaughter;" parent="1" source="J_IsrCbrUyyv8cD7LksS-1" target="QNinl-FxONfIF-WMUGOS-1" edge="1">
          <mxGeometry relative="1" as="geometry">
            <Array as="points">
              <mxPoint x="585" y="1000" />
              <mxPoint x="585" y="1000" />
            </Array>
          </mxGeometry>
        </mxCell>
        <mxCell id="J_IsrCbrUyyv8cD7LksS-20" style="edgeStyle=orthogonalEdgeStyle;rounded=0;sketch=1;hachureGap=4;jiggle=2;curveFitting=1;orthogonalLoop=1;jettySize=auto;html=1;fontFamily=Architects Daughter;fontSource=https%3A%2F%2Ffonts.googleapis.com%2Fcss%3Ffamily%3DArchitects%2BDaughter;" parent="1" source="J_IsrCbrUyyv8cD7LksS-5" edge="1">
          <mxGeometry relative="1" as="geometry">
            <mxPoint x="550" y="830" as="targetPoint" />
            <Array as="points">
              <mxPoint x="550" y="832" />
            </Array>
          </mxGeometry>
        </mxCell>
        <mxCell id="J_IsrCbrUyyv8cD7LksS-21" style="edgeStyle=orthogonalEdgeStyle;rounded=0;sketch=1;hachureGap=4;jiggle=2;curveFitting=1;orthogonalLoop=1;jettySize=auto;html=1;fontFamily=Architects Daughter;fontSource=https%3A%2F%2Ffonts.googleapis.com%2Fcss%3Ffamily%3DArchitects%2BDaughter;" parent="1" source="J_IsrCbrUyyv8cD7LksS-1" edge="1">
          <mxGeometry relative="1" as="geometry">
            <mxPoint x="550" y="1040" as="targetPoint" />
            <Array as="points">
              <mxPoint x="550" y="1040" />
            </Array>
          </mxGeometry>
        </mxCell>
        <mxCell id="J_IsrCbrUyyv8cD7LksS-29" style="edgeStyle=orthogonalEdgeStyle;rounded=0;sketch=1;hachureGap=4;jiggle=2;curveFitting=1;orthogonalLoop=1;jettySize=auto;html=1;fontFamily=Architects Daughter;fontSource=https%3A%2F%2Ffonts.googleapis.com%2Fcss%3Ffamily%3DArchitects%2BDaughter;" parent="1" source="J_IsrCbrUyyv8cD7LksS-9" edge="1">
          <mxGeometry relative="1" as="geometry">
            <mxPoint x="230" y="830" as="targetPoint" />
            <Array as="points">
              <mxPoint x="230" y="830" />
            </Array>
          </mxGeometry>
        </mxCell>
        <mxCell id="7VYEh889NyYLhTuRO7js-35" value="Scene" style="rounded=1;arcSize=10;whiteSpace=wrap;html=1;align=center;fillColor=#fa6800;strokeColor=#C73500;gradientDirection=north;fillStyle=zigzag;sketch=1;curveFitting=1;jiggle=2;fontFamily=Comic Sans MS;fontSize=16;fontStyle=1;labelBackgroundColor=none;labelBorderColor=none;textShadow=0;fontColor=light-dark(#000000,#FFFFFF);" parent="1" vertex="1">
          <mxGeometry x="260" y="850" width="220" height="50" as="geometry" />
        </mxCell>
        <mxCell id="J_IsrCbrUyyv8cD7LksS-37" style="edgeStyle=orthogonalEdgeStyle;rounded=0;sketch=1;hachureGap=4;jiggle=2;curveFitting=1;orthogonalLoop=1;jettySize=auto;html=1;fontFamily=Architects Daughter;fontSource=https%3A%2F%2Ffonts.googleapis.com%2Fcss%3Ffamily%3DArchitects%2BDaughter;" parent="1" source="J_IsrCbrUyyv8cD7LksS-9" edge="1">
          <mxGeometry relative="1" as="geometry">
            <mxPoint x="430" y="970" as="targetPoint" />
            <Array as="points">
              <mxPoint x="430" y="970" />
            </Array>
          </mxGeometry>
        </mxCell>
        <mxCell id="J_IsrCbrUyyv8cD7LksS-39" style="edgeStyle=orthogonalEdgeStyle;rounded=0;sketch=1;hachureGap=4;jiggle=2;curveFitting=1;orthogonalLoop=1;jettySize=auto;html=1;entryX=0.11;entryY=0.976;entryDx=0;entryDy=0;entryPerimeter=0;fontFamily=Architects Daughter;fontSource=https%3A%2F%2Ffonts.googleapis.com%2Fcss%3Ffamily%3DArchitects%2BDaughter;" parent="1" source="J_IsrCbrUyyv8cD7LksS-6" target="J_IsrCbrUyyv8cD7LksS-7" edge="1">
          <mxGeometry relative="1" as="geometry" />
        </mxCell>
        <mxCell id="J_IsrCbrUyyv8cD7LksS-42" style="edgeStyle=orthogonalEdgeStyle;rounded=0;sketch=1;hachureGap=4;jiggle=2;curveFitting=1;orthogonalLoop=1;jettySize=auto;html=1;fontFamily=Architects Daughter;fontSource=https%3A%2F%2Ffonts.googleapis.com%2Fcss%3Ffamily%3DArchitects%2BDaughter;" parent="1" edge="1">
          <mxGeometry relative="1" as="geometry">
            <mxPoint x="520" y="992" as="sourcePoint" />
            <mxPoint x="520" y="970" as="targetPoint" />
            <Array as="points">
              <mxPoint x="520" y="970" />
            </Array>
          </mxGeometry>
        </mxCell>
        <mxCell id="J_IsrCbrUyyv8cD7LksS-49" style="edgeStyle=orthogonalEdgeStyle;rounded=0;sketch=1;hachureGap=4;jiggle=2;curveFitting=1;orthogonalLoop=1;jettySize=auto;html=1;entryX=0.481;entryY=0.206;entryDx=0;entryDy=0;entryPerimeter=0;fontFamily=Architects Daughter;fontSource=https%3A%2F%2Ffonts.googleapis.com%2Fcss%3Ffamily%3DArchitects%2BDaughter;" parent="1" source="J_IsrCbrUyyv8cD7LksS-6" target="7VYEh889NyYLhTuRO7js-1" edge="1">
          <mxGeometry relative="1" as="geometry">
            <Array as="points">
              <mxPoint x="400" y="980" />
              <mxPoint x="400" y="980" />
            </Array>
          </mxGeometry>
        </mxCell>
        <mxCell id="J_IsrCbrUyyv8cD7LksS-50" style="edgeStyle=orthogonalEdgeStyle;rounded=0;sketch=1;hachureGap=4;jiggle=2;curveFitting=1;orthogonalLoop=1;jettySize=auto;html=1;entryX=0.296;entryY=1;entryDx=0;entryDy=0;entryPerimeter=0;fontFamily=Architects Daughter;fontSource=https%3A%2F%2Ffonts.googleapis.com%2Fcss%3Ffamily%3DArchitects%2BDaughter;" parent="1" source="J_IsrCbrUyyv8cD7LksS-11" target="QNinl-FxONfIF-WMUGOS-1" edge="1">
          <mxGeometry relative="1" as="geometry">
            <Array as="points">
              <mxPoint x="250" y="945" />
            </Array>
          </mxGeometry>
        </mxCell>
        <mxCell id="J_IsrCbrUyyv8cD7LksS-58" style="edgeStyle=orthogonalEdgeStyle;rounded=0;sketch=1;hachureGap=4;jiggle=2;curveFitting=1;orthogonalLoop=1;jettySize=auto;html=1;fontFamily=Architects Daughter;fontSource=https%3A%2F%2Ffonts.googleapis.com%2Fcss%3Ffamily%3DArchitects%2BDaughter;" parent="1" source="7VYEh889NyYLhTuRO7js-6" edge="1">
          <mxGeometry relative="1" as="geometry">
            <mxPoint x="760" y="1110" as="targetPoint" />
            <Array as="points">
              <mxPoint x="760" y="1110" />
            </Array>
          </mxGeometry>
        </mxCell>
        <mxCell id="J_IsrCbrUyyv8cD7LksS-62" style="edgeStyle=orthogonalEdgeStyle;rounded=0;sketch=1;hachureGap=4;jiggle=2;curveFitting=1;orthogonalLoop=1;jettySize=auto;html=1;entryX=0.444;entryY=1;entryDx=0;entryDy=0;entryPerimeter=0;fontFamily=Architects Daughter;fontSource=https%3A%2F%2Ffonts.googleapis.com%2Fcss%3Ffamily%3DArchitects%2BDaughter;" parent="1" source="7VYEh889NyYLhTuRO7js-35" target="QNinl-FxONfIF-WMUGOS-1" edge="1">
          <mxGeometry relative="1" as="geometry" />
        </mxCell>
        <mxCell id="J_IsrCbrUyyv8cD7LksS-63" style="edgeStyle=orthogonalEdgeStyle;rounded=0;sketch=1;hachureGap=4;jiggle=2;curveFitting=1;orthogonalLoop=1;jettySize=auto;html=1;entryX=0.61;entryY=1.013;entryDx=0;entryDy=0;entryPerimeter=0;fontFamily=Architects Daughter;fontSource=https%3A%2F%2Ffonts.googleapis.com%2Fcss%3Ffamily%3DArchitects%2BDaughter;" parent="1" source="J_IsrCbrUyyv8cD7LksS-8" target="QNinl-FxONfIF-WMUGOS-1" edge="1">
          <mxGeometry relative="1" as="geometry">
            <Array as="points">
              <mxPoint x="420" y="910" />
              <mxPoint x="504" y="910" />
            </Array>
          </mxGeometry>
        </mxCell>
        <mxCell id="J_IsrCbrUyyv8cD7LksS-64" style="edgeStyle=orthogonalEdgeStyle;rounded=0;sketch=1;hachureGap=4;jiggle=2;curveFitting=1;orthogonalLoop=1;jettySize=auto;html=1;fontFamily=Architects Daughter;fontSource=https%3A%2F%2Ffonts.googleapis.com%2Fcss%3Ffamily%3DArchitects%2BDaughter;" parent="1" source="J_IsrCbrUyyv8cD7LksS-8" target="7VYEh889NyYLhTuRO7js-35" edge="1">
          <mxGeometry relative="1" as="geometry">
            <mxPoint x="390" y="910" as="targetPoint" />
            <Array as="points">
              <mxPoint x="390" y="910" />
              <mxPoint x="390" y="910" />
            </Array>
          </mxGeometry>
        </mxCell>
        <mxCell id="J_IsrCbrUyyv8cD7LksS-66" style="edgeStyle=orthogonalEdgeStyle;rounded=0;sketch=1;hachureGap=4;jiggle=2;curveFitting=1;orthogonalLoop=1;jettySize=auto;html=1;entryX=0.953;entryY=1.013;entryDx=0;entryDy=0;entryPerimeter=0;fontFamily=Architects Daughter;fontSource=https%3A%2F%2Ffonts.googleapis.com%2Fcss%3Ffamily%3DArchitects%2BDaughter;" parent="1" source="J_IsrCbrUyyv8cD7LksS-7" target="7VYEh889NyYLhTuRO7js-35" edge="1">
          <mxGeometry relative="1" as="geometry">
            <Array as="points">
              <mxPoint x="470" y="900" />
            </Array>
          </mxGeometry>
        </mxCell>
        <mxCell id="J_IsrCbrUyyv8cD7LksS-67" style="edgeStyle=orthogonalEdgeStyle;rounded=0;sketch=1;hachureGap=4;jiggle=2;curveFitting=1;orthogonalLoop=1;jettySize=auto;html=1;entryX=0.295;entryY=1;entryDx=0;entryDy=0;entryPerimeter=0;fontFamily=Architects Daughter;fontSource=https%3A%2F%2Ffonts.googleapis.com%2Fcss%3Ffamily%3DArchitects%2BDaughter;" parent="1" source="J_IsrCbrUyyv8cD7LksS-11" target="7VYEh889NyYLhTuRO7js-35" edge="1">
          <mxGeometry relative="1" as="geometry" />
        </mxCell>
        <mxCell id="J_IsrCbrUyyv8cD7LksS-68" style="edgeStyle=orthogonalEdgeStyle;rounded=0;sketch=1;hachureGap=4;jiggle=2;curveFitting=1;orthogonalLoop=1;jettySize=auto;html=1;entryX=0.067;entryY=1.011;entryDx=0;entryDy=0;entryPerimeter=0;fontFamily=Architects Daughter;fontSource=https%3A%2F%2Ffonts.googleapis.com%2Fcss%3Ffamily%3DArchitects%2BDaughter;" parent="1" source="J_IsrCbrUyyv8cD7LksS-9" target="7VYEh889NyYLhTuRO7js-35" edge="1">
          <mxGeometry relative="1" as="geometry">
            <Array as="points">
              <mxPoint x="275" y="980" />
            </Array>
          </mxGeometry>
        </mxCell>
        <mxCell id="J_IsrCbrUyyv8cD7LksS-70" style="edgeStyle=orthogonalEdgeStyle;rounded=0;sketch=1;hachureGap=4;jiggle=2;curveFitting=1;orthogonalLoop=1;jettySize=auto;html=1;fontFamily=Architects Daughter;fontSource=https%3A%2F%2Ffonts.googleapis.com%2Fcss%3Ffamily%3DArchitects%2BDaughter;" parent="1" source="7VYEh889NyYLhTuRO7js-6" edge="1">
          <mxGeometry relative="1" as="geometry">
            <mxPoint x="800" y="830" as="targetPoint" />
            <Array as="points">
              <mxPoint x="800" y="830" />
            </Array>
          </mxGeometry>
        </mxCell>
        <mxCell id="J_IsrCbrUyyv8cD7LksS-72" style="edgeStyle=orthogonalEdgeStyle;rounded=0;sketch=1;hachureGap=4;jiggle=2;curveFitting=1;orthogonalLoop=1;jettySize=auto;html=1;entryX=0.89;entryY=1.021;entryDx=0;entryDy=0;entryPerimeter=0;fontFamily=Architects Daughter;fontSource=https%3A%2F%2Ffonts.googleapis.com%2Fcss%3Ffamily%3DArchitects%2BDaughter;" parent="1" source="7VYEh889NyYLhTuRO7js-18" target="QNinl-FxONfIF-WMUGOS-1" edge="1">
          <mxGeometry relative="1" as="geometry" />
        </mxCell>
        <mxCell id="J_IsrCbrUyyv8cD7LksS-77" style="edgeStyle=orthogonalEdgeStyle;rounded=0;sketch=1;hachureGap=4;jiggle=2;curveFitting=1;orthogonalLoop=1;jettySize=auto;html=1;entryX=0.796;entryY=0.967;entryDx=0;entryDy=0;entryPerimeter=0;fontFamily=Architects Daughter;fontSource=https%3A%2F%2Ffonts.googleapis.com%2Fcss%3Ffamily%3DArchitects%2BDaughter;" parent="1" source="J_IsrCbrUyyv8cD7LksS-3" target="QNinl-FxONfIF-WMUGOS-1" edge="1">
          <mxGeometry relative="1" as="geometry" />
        </mxCell>
      </root>
    </mxGraphModel>
  </diagram>
</mxfile>
